<svg id="图层_1" data-name="图层 1" xmlns="http://www.w3.org/2000/svg" viewBox="0 0 65.17 64.92"><defs><style>.cls-1{fill:#fff;}</style></defs><title>logo</title><path class="cls-1" d="M61.27,43.42H50.09a3,3,0,0,1-2.18-.67,3,3,0,0,1-.66-2.17v-16a.32.32,0,0,0-.32-.32H44.41a1.8,1.8,0,0,0-1.23.49l-4.83,4.58a.31.31,0,0,0,0,.41l6.33,9.07a12,12,0,0,1,1,1.69A3.31,3.31,0,0,1,46,41.93a1.75,1.75,0,0,1-.6,1.32,2.26,2.26,0,0,1-1.63.56,2.77,2.77,0,0,1-1.57-.41,3.51,3.51,0,0,1-1-1.1c-.28-.46-.53-.87-.75-1.25L35.16,33a.32.32,0,0,0-.48-.06l-3.42,3.28a.33.33,0,0,0-.1.23V41a3,3,0,0,1-.65,2.13,2.23,2.23,0,0,1-1.69.69,2.3,2.3,0,0,1-2-1.15,2.83,2.83,0,0,1-.26-1c0-.38,0-.94,0-1.66V38a.31.31,0,0,0-.54-.21l-2.64,2.8c-.14.16-.28.33-.44.5l-.37.36,0,0h0A9,9,0,0,1,20,43.05a10.57,10.57,0,0,1-4.18.76,14.59,14.59,0,0,1-3.29-.34A9.4,9.4,0,0,1,9.8,42.4a8.82,8.82,0,0,1-2.22-1.91A11.29,11.29,0,0,1,6,38.08a13.08,13.08,0,0,1-1.17-4.16.55.55,0,0,0-1-.31l-1.82,2a1.38,1.38,0,0,0-.36,1.13,31.11,31.11,0,0,0,59.84,7.15.32.32,0,0,0-.3-.44Z"/><path class="cls-1" d="M7.37,23.89h0a6.17,6.17,0,0,1,.48-.54,9.07,9.07,0,0,1,.72-.67s0,0,.05-.05h0a5.74,5.74,0,0,1,.46-.37l.08,0A9.72,9.72,0,0,1,11.37,21a11.37,11.37,0,0,1,4.29-.81,10.79,10.79,0,0,1,4.94,1.1A8.9,8.9,0,0,1,23.92,24a5.41,5.41,0,0,1,1.16,3.08,2,2,0,0,1-.56,1.41,1.81,1.81,0,0,1-1.36.6,1.86,1.86,0,0,1-1.33-.42,5.55,5.55,0,0,1-1-1.45,7.11,7.11,0,0,0-2.13-2.54,5.24,5.24,0,0,0-3-.84A5.47,5.47,0,0,0,11.14,26a9.78,9.78,0,0,0-1.69,6.16,11.41,11.41,0,0,0,.75,4.43,5.58,5.58,0,0,0,2.12,2.65,5.84,5.84,0,0,0,3.21.87,5.65,5.65,0,0,0,3.38-1l.29-.23,0,0L26,31.83l.43-.43a.3.3,0,0,0,.1-.23V23a3.12,3.12,0,0,1,.62-2.1,2.1,2.1,0,0,1,1.67-.7,2.24,2.24,0,0,1,1.7.69A3,3,0,0,1,31.16,23v7.24a.32.32,0,0,0,.55.22l8.55-8.92a8.41,8.41,0,0,1,1.11-1,2.16,2.16,0,0,1,1.23-.32h7a2.2,2.2,0,0,1,1.65.69A3,3,0,0,1,51.88,23V38.62a1,1,0,0,0,1,1h7.47c.26,0,.26,0,.48-.21L62.18,38a5.14,5.14,0,0,0,1.42-3.19c0-.73.08-1.46.08-2.2A31.11,31.11,0,0,0,1.66,29a.31.31,0,0,0,.54.25Z"/></svg>